<?xml version="1.0" encoding="UTF-8"?>
<svg width="15px" height="15px" viewBox="0 0 15 15" version="1.1" xmlns="http://www.w3.org/2000/svg" xmlns:xlink="http://www.w3.org/1999/xlink">
    <!-- Generator: Sketch 52.5 (67469) - http://www.bohemiancoding.com/sketch -->
    <title>Icon</title>
    <desc>Created with Sketch.</desc>
    <g id="Page-1" stroke="none" stroke-width="1" fill="none" fill-rule="evenodd">
        <g id="Front-end-Developer-Test" transform="translate(-1248.000000, -3225.000000)" fill="#BDC6CF">
            <g id="Footer-#13" transform="translate(0.000000, 3192.000000)">
                <path d="M1259.11147,44.0823529 C1259.43971,43.0848529 1259.63206,42.0255882 1259.6775,40.9411765 L1262.09515,40.9411765 C1261.99588,42.4389706 1261.39853,43.7995588 1260.46412,44.8619118 C1260.03309,44.5597059 1259.58176,44.2985294 1259.11147,44.0823529 L1259.11147,44.0823529 Z M1258.80044,44.9122059 C1259.15559,45.0789706 1259.49971,45.2713235 1259.82971,45.4927941 C1259.24912,45.9970588 1258.58074,46.3998529 1257.85015,46.6786765 C1258.21941,46.1298529 1258.53706,45.5382353 1258.80044,44.9122059 L1258.80044,44.9122059 Z M1252.29926,44.8632353 C1252.57544,45.5294118 1252.91206,46.1576471 1253.30824,46.7369118 C1252.51544,46.4572059 1251.79235,46.0332353 1251.16985,45.4927941 C1251.53118,45.2505882 1251.90838,45.0401471 1252.29926,44.8632353 L1252.29926,44.8632353 Z M1252.25912,36.1155882 C1251.88324,35.9430882 1251.51971,35.7397059 1251.17162,35.5058824 C1251.76985,34.9866176 1252.46206,34.5754412 1253.21868,34.2961765 C1252.84103,34.8635294 1252.52074,35.4723529 1252.25912,36.1155882 L1252.25912,36.1155882 Z M1258.84147,36.0675 C1258.59221,35.4635294 1258.29088,34.8908824 1257.93882,34.3539706 C1258.63456,34.6310294 1259.27118,35.0223529 1259.82794,35.5054412 C1259.51074,35.7176471 1259.18162,35.9055882 1258.84147,36.0675 L1258.84147,36.0675 Z M1255.93324,40.0588235 L1255.93324,37.6888235 C1256.75382,37.6486765 1257.55456,37.4977941 1258.31779,37.2357353 C1258.59971,38.1344118 1258.76426,39.0864706 1258.79956,40.0588235 L1255.93324,40.0588235 Z M1255.93324,40.9411765 L1258.79515,40.9411765 C1258.75147,41.9117647 1258.58074,42.8585294 1258.29265,43.7514706 C1257.53779,43.4951471 1256.74588,43.3513235 1255.93324,43.3116176 L1255.93324,40.9411765 Z M1255.05088,40.9411765 L1255.05088,43.3125 C1254.28279,43.3508824 1253.53368,43.4863235 1252.81721,43.7188235 C1252.53529,42.8355882 1252.36809,41.9002941 1252.32485,40.9411765 L1255.05088,40.9411765 Z M1255.05088,40.0588235 L1252.32044,40.0588235 C1252.35529,39.1005882 1252.51544,38.1622059 1252.79029,37.275 C1253.51559,37.5127941 1254.27397,37.6486765 1255.05088,37.6879412 L1255.05088,40.0588235 Z M1262.09515,40.0588235 L1259.68235,40.0588235 C1259.64706,38.9598529 1259.46485,37.8975 1259.14544,36.8991176 C1259.60338,36.6860294 1260.04412,36.4327941 1260.46456,36.1389706 C1261.39853,37.2008824 1261.99588,38.5614706 1262.09515,40.0588235 L1262.09515,40.0588235 Z M1256.56412,33.9763235 C1257.16235,34.6852941 1257.64941,35.5094118 1258.01824,36.4058824 C1257.34985,36.6339706 1256.65059,36.7672059 1255.93324,36.8064706 L1255.93324,33.9044118 C1256.14676,33.9180882 1256.35676,33.9423529 1256.56412,33.9763235 L1256.56412,33.9763235 Z M1255.05088,33.9052941 L1255.05088,36.8055882 C1254.37632,36.7676471 1253.71809,36.6476471 1253.08721,36.4425 C1253.46132,35.5230882 1253.95853,34.6782353 1254.57221,33.9551471 C1254.73015,33.9330882 1254.88941,33.9158824 1255.05088,33.9052941 L1255.05088,33.9052941 Z M1250.53588,36.1385294 C1250.98809,36.4552941 1251.46324,36.7270588 1251.95912,36.9494118 C1251.64985,37.9332353 1251.4725,38.9783824 1251.43765,40.0588235 L1248.90441,40.0588235 C1249.00412,38.5610294 1249.60147,37.2004412 1250.53588,36.1385294 L1250.53588,36.1385294 Z M1248.90441,40.9411765 L1251.44294,40.9411765 C1251.48706,42.0075 1251.67456,43.0486765 1251.99265,44.0316176 C1251.48441,44.2566176 1250.99912,44.5372059 1250.53588,44.8619118 C1249.60147,43.7995588 1249.00412,42.4389706 1248.90441,40.9411765 L1248.90441,40.9411765 Z M1254.66574,47.0594118 C1254.02735,46.3336765 1253.51118,45.4804412 1253.12162,44.5482353 C1253.74191,44.3501471 1254.38779,44.2319118 1255.05088,44.1948529 L1255.05088,47.0951471 C1254.92162,47.0863235 1254.79324,47.0752941 1254.66574,47.0594118 L1254.66574,47.0594118 Z M1255.93324,47.0955882 L1255.93324,44.1939706 C1256.63912,44.2323529 1257.32779,44.3594118 1257.98515,44.5804412 C1257.60088,45.4910294 1257.09441,46.3252941 1256.47147,47.0382353 C1256.29412,47.0647059 1256.115,47.0841176 1255.93324,47.0955882 L1255.93324,47.0955882 Z M1260.91015,45.6855882 C1262.20191,44.3382353 1263,42.5139706 1263,40.5 C1263,36.8148529 1260.34015,33.7575 1256.83721,33.1257353 C1256.83324,33.1252941 1256.82971,33.1244118 1256.82574,33.1239706 C1256.39471,33.0472059 1255.95309,33 1255.5,33 C1251.35779,33 1248,36.3577941 1248,40.5 C1248,42.5214706 1248.80338,44.3527941 1250.10397,45.7014706 C1250.10882,45.7085294 1250.10971,45.7169118 1250.115,45.7239706 C1250.12735,45.7398529 1250.145,45.7482353 1250.15912,45.7619118 C1251.51926,47.1423529 1253.40882,48 1255.5,48 C1257.58191,48 1259.46485,47.1507353 1260.82412,45.7804412 C1260.84529,45.7619118 1260.87132,45.7508824 1260.88941,45.7275 C1260.89956,45.7147059 1260.90176,45.6992647 1260.91015,45.6855882 L1260.91015,45.6855882 Z" id="Icon"></path>
            </g>
        </g>
    </g>
</svg>